<svg height="512" viewBox="0 0 256 256" width="512" xmlns="http://www.w3.org/2000/svg"><path d="m186.173 193.378a2.492 2.492 0 0 1 -1.767-.732l-54.305-54.3a2.5 2.5 0 0 1 3.535-3.535l54.305 54.3a2.5 2.5 0 0 1 -1.768 4.268z" fill="#ebe7f2"/><path d="m123.067 130.271a2.493 2.493 0 0 1 -1.768-.732l-51.1-51.1a2.5 2.5 0 0 1 3.535-3.535l51.1 51.1a2.5 2.5 0 0 1 -1.767 4.267z" fill="#ebe7f2"/><path d="m57.994 204.146a2.5 2.5 0 0 1 -1.767-4.268l58.586-58.586a2.5 2.5 0 0 1 3.535 3.535l-58.586 58.586a2.494 2.494 0 0 1 -1.768.733z" fill="#ebe7f2"/><path d="m130.9 206.177c-.042 0-.083 0-.125 0a2.5 2.5 0 0 1 -1.81-.914l-4.289-5.242a2.5 2.5 0 1 1 3.87-3.166l2.539 3.1 5.91-5.909a2.5 2.5 0 0 1 3.535 3.535l-7.863 7.862a2.5 2.5 0 0 1 -1.767.734z" fill="#a58bc9"/><g fill="#846f75"><path d="m56.729 83.379a13.3 13.3 0 0 0 3.236 5.3l37.291 37.291a2.5 2.5 0 0 0 3.536-3.535l-35.524-35.526 16.932-16.936 41.5 41.5a2.5 2.5 0 0 0 3.535-3.535l-43.263-43.268a13.271 13.271 0 0 0 -5.3-3.237l-22.356-7.2a5.4 5.4 0 0 0 -6.789 6.789zm21.654-16.656-16.364 16.364a8.129 8.129 0 0 1 -.531-1.241l-3.8-11.8 7.653-7.653 11.8 3.8a8.273 8.273 0 0 1 1.242.53zm-24-7.633a.367.367 0 0 1 .4-.1l5.206 1.677-4.024 4.033-1.677-5.208a.364.364 0 0 1 .097-.402z"/><path d="m206.133 186.831-55.172-55.172a2.5 2.5 0 1 0 -3.535 3.535l45.447 45.448-16.936 16.936-39.083-39.078a2.5 2.5 0 1 0 -3.535 3.535l48.807 48.808a14.1 14.1 0 0 0 19.913 0l4.094-4.095a14.1 14.1 0 0 0 0-19.917zm-3.533 16.377-4.1 4.092a9.094 9.094 0 0 1 -12.841 0l-6.19-6.189 16.937-16.937 6.189 6.189a9.081 9.081 0 0 1 0 12.842z"/><path d="m128.773 154.366 8.852-8.851a4.778 4.778 0 0 0 0-6.756l-2.2-2.2 50.025-50.033 5.109-1.178a9.314 9.314 0 0 0 5.558-3.757l12.217-17.529a4.773 4.773 0 0 0 -.541-6.11l-6.105-6.1a4.769 4.769 0 0 0 -6.109-.541l-17.53 12.216a9.317 9.317 0 0 0 -3.757 5.558l-1.179 5.11-50.028 50.028-2.2-2.2a4.781 4.781 0 0 0 -6.754 0l-8.852 8.852a8.476 8.476 0 0 0 -6.931 2.428l-50.118 50.104a8.493 8.493 0 0 0 0 12.01l15.993 15.992a8.49 8.49 0 0 0 12.009 0l50.113-50.109a8.479 8.479 0 0 0 2.428-6.934zm50.392-84.166a4.316 4.316 0 0 1 1.743-2.579l17.377-12.11 5.84 5.84-12.11 17.376a4.326 4.326 0 0 1 -2.579 1.745l-4.458 1.028-6.842-6.842zm-3.777 8.781 5.266 5.267-48.768 48.772-5.266-5.267zm-57.888 46.727 16.429 16.428-7.381 7.381c-.07-.076-.133-.155-.206-.229l-15.993-15.993c-.074-.074-.154-.137-.229-.207zm5.307 32.055-50.107 50.111a3.575 3.575 0 0 1 -4.939 0l-15.995-15.992a3.493 3.493 0 0 1 0-4.94l50.112-50.112a3.5 3.5 0 0 1 4.938 0l15.994 15.993a3.5 3.5 0 0 1 0 4.94z"/><path d="m132.438 180.644a18.788 18.788 0 1 0 18.789 18.788 18.81 18.81 0 0 0 -18.789-18.788zm0 32.576a13.788 13.788 0 1 1 13.789-13.788 13.8 13.8 0 0 1 -13.789 13.788z"/><path d="m109.794 70.986 3.484.9-1.83 3.1a4.7 4.7 0 0 0 .726 5.7l3.524 3.525a4.7 4.7 0 0 0 5.706.724l3.1-1.83.9 3.487a4.7 4.7 0 0 0 4.548 3.52h4.981a4.7 4.7 0 0 0 4.548-3.522l.9-3.485 3.1 1.831a4.7 4.7 0 0 0 5.7-.726l3.523-3.524a4.7 4.7 0 0 0 .724-5.706l-1.828-3.1 3.486-.9a4.7 4.7 0 0 0 3.52-4.547v-4.976a4.7 4.7 0 0 0 -3.52-4.547l-3.484-.9 1.83-3.1a4.7 4.7 0 0 0 -.726-5.7l-3.523-3.522a4.7 4.7 0 0 0 -5.707-.726l-3.1 1.829-.9-3.487a4.7 4.7 0 0 0 -4.547-3.52h-4.981a4.7 4.7 0 0 0 -4.548 3.516l-.9 3.484-3.1-1.83a4.7 4.7 0 0 0 -5.7.727l-3.522 3.521a4.7 4.7 0 0 0 -.725 5.707l1.828 3.1-3.486.9a4.7 4.7 0 0 0 -3.521 4.547v4.981a4.7 4.7 0 0 0 3.52 4.549zm1.477-9.3 6.474-1.668a2.5 2.5 0 0 0 1.528-3.691l-3.4-5.757 3.19-3.19 5.757 3.4a2.5 2.5 0 0 0 3.692-1.529l1.668-6.474h4.511l1.668 6.474a2.5 2.5 0 0 0 3.692 1.529l5.757-3.4 3.19 3.19-3.4 5.757a2.5 2.5 0 0 0 1.528 3.691l6.473 1.668v4.514l-6.472 1.667a2.5 2.5 0 0 0 -1.529 3.692l3.4 5.756-3.19 3.191-5.757-3.4a2.5 2.5 0 0 0 -3.692 1.53l-1.668 6.473h-4.511l-1.668-6.473a2.5 2.5 0 0 0 -3.692-1.53l-5.757 3.4-3.19-3.191 3.4-5.756a2.5 2.5 0 0 0 -1.529-3.692l-6.473-1.667z"/></g><path d="m132.438 74.084a10.136 10.136 0 1 1 10.136-10.137 10.147 10.147 0 0 1 -10.136 10.137zm0-15.272a5.136 5.136 0 1 0 5.136 5.135 5.14 5.14 0 0 0 -5.136-5.135z" fill="#a58bc9"/></svg>