<svg viewBox="0 0 256 256" xmlns="http://www.w3.org/2000/svg"><g fill="#846f75"><path d="m179.9 199.968v-175.868a2.5 2.5 0 0 0 -2.5-2.5h-88.379a2.5 2.5 0 0 0 -1.767.732l-42.354 42.349a2.5 2.5 0 0 0 -.733 1.767v133.52a2.5 2.5 0 0 0 2.5 2.5h130.733a2.5 2.5 0 0 0 2.5-2.5zm-93.379-169.836v33.816h-33.815zm88.379 167.336h-125.73v-128.52h39.851a2.5 2.5 0 0 0 2.5-2.5v-39.848h83.379z"/><path d="m195.862 215.936v-175.872a2.5 2.5 0 0 0 -2.5-2.5h-6.33a2.5 2.5 0 0 0 0 5h3.83v170.872h-125.724v-3.468a2.5 2.5 0 0 0 -5 0v5.968a2.5 2.5 0 0 0 2.5 2.5h130.724a2.5 2.5 0 0 0 2.5-2.5z"/><path d="m209.329 53.532h-5.967a2.5 2.5 0 0 0 0 5h3.467v170.868h-125.724v-3.467a2.5 2.5 0 0 0 -5 0v5.967a2.5 2.5 0 0 0 2.5 2.5h130.724a2.5 2.5 0 0 0 2.5-2.5v-175.868a2.5 2.5 0 0 0 -2.5-2.5z"/></g><path d="m116.155 162.032h-8.245a6.135 6.135 0 0 1 -5.94-4.6l-2.03-7.877-7 4.133a6.134 6.134 0 0 1 -7.454-.948l-5.83-5.829a6.135 6.135 0 0 1 -.949-7.452l4.135-7.006-7.875-2.028a6.14 6.14 0 0 1 -4.6-5.942v-8.244a6.134 6.134 0 0 1 4.6-5.94l7.877-2.03-4.133-7a6.134 6.134 0 0 1 .947-7.454l5.829-5.83a6.139 6.139 0 0 1 7.452-.95l7.006 4.136 2.03-7.875a6.135 6.135 0 0 1 5.94-4.6h8.245a6.137 6.137 0 0 1 5.94 4.6l2.03 7.878 7-4.134a6.139 6.139 0 0 1 7.453.948l5.83 5.83a6.135 6.135 0 0 1 .949 7.452l-4.134 7.006 7.872 2.024a6.134 6.134 0 0 1 4.6 5.94v8.244a6.138 6.138 0 0 1 -4.6 5.941l-7.878 2.029 4.133 7a6.135 6.135 0 0 1 -.948 7.454l-5.83 5.829a6.137 6.137 0 0 1 -7.451.949l-7.006-4.134-2.029 7.875a6.137 6.137 0 0 1 -5.936 4.605zm-13.667-18.632a2.5 2.5 0 0 1 1.465 1.686l2.859 11.094a1.133 1.133 0 0 0 1.1.848h8.245a1.136 1.136 0 0 0 1.1-.851l2.857-11.091a2.5 2.5 0 0 1 3.692-1.529l9.866 5.823a1.137 1.137 0 0 0 1.377-.177l5.83-5.829a1.138 1.138 0 0 0 .176-1.38l-5.823-9.864a2.5 2.5 0 0 1 1.53-3.692l11.094-2.857a1.136 1.136 0 0 0 .848-1.1v-8.244a1.135 1.135 0 0 0 -.85-1.1l-11.092-2.858a2.5 2.5 0 0 1 -1.53-3.691l5.824-9.866a1.135 1.135 0 0 0 -.177-1.377l-5.83-5.83a1.132 1.132 0 0 0 -1.38-.175l-9.869 5.825a2.5 2.5 0 0 1 -3.692-1.529l-2.858-11.094a1.135 1.135 0 0 0 -1.1-.848h-8.24a1.135 1.135 0 0 0 -1.1.85l-2.858 11.092a2.5 2.5 0 0 1 -3.692 1.529l-9.86-5.823a1.133 1.133 0 0 0 -1.377.177l-5.829 5.83a1.133 1.133 0 0 0 -.176 1.379l5.821 9.864a2.5 2.5 0 0 1 -1.529 3.691l-11.093 2.859a1.135 1.135 0 0 0 -.849 1.1v8.244a1.138 1.138 0 0 0 .852 1.1l11.09 2.856a2.5 2.5 0 0 1 1.529 3.692l-5.828 9.866a1.135 1.135 0 0 0 .177 1.377l5.83 5.83a1.135 1.135 0 0 0 1.379.176l9.864-5.822a2.723 2.723 0 0 1 2.227-.161z" fill="#f9b087"/><path d="m112.033 135.5a15.138 15.138 0 1 1 15.137-15.138 15.155 15.155 0 0 1 -15.137 15.138zm0-25.275a10.138 10.138 0 1 0 10.137 10.137 10.149 10.149 0 0 0 -10.137-10.136z" fill="#f9b087"/><path d="m163.782 187h-103.499a2.5 2.5 0 0 1 0-5h103.5a2.5 2.5 0 1 1 0 5z" fill="#ebe7f2"/></svg>