<svg height="512" viewBox="0 0 256 256" width="512" xmlns="http://www.w3.org/2000/svg"><path d="m122.993 113.02a2.5 2.5 0 0 1 -2.307-3.461l10.014-24.069a2.5 2.5 0 0 1 4.617 1.92l-10.017 24.069a2.5 2.5 0 0 1 -2.307 1.541z" fill="#f9b087"/><path d="m147.947 112.938a2.5 2.5 0 0 1 -1.767-4.268l10.185-10.186-10.185-10.184a2.5 2.5 0 1 1 3.535-3.535l11.953 11.953a2.5 2.5 0 0 1 0 3.535l-11.953 11.953a2.494 2.494 0 0 1 -1.768.732z" fill="#f9b087"/><path d="m108.053 112.938a2.494 2.494 0 0 1 -1.768-.733l-11.953-11.953a2.5 2.5 0 0 1 0-3.535l11.953-11.953a2.5 2.5 0 1 1 3.535 3.536l-10.185 10.184 10.185 10.186a2.5 2.5 0 0 1 -1.767 4.268z" fill="#f9b087"/><path d="m78.359 136.1h-37.88a2.5 2.5 0 0 0 -2.5 2.5v37.879a2.5 2.5 0 0 0 2.5 2.5h37.88a2.5 2.5 0 0 0 2.5-2.5v-37.879a2.5 2.5 0 0 0 -2.5-2.5zm-6.035 5-12.9 12.9-12.9-12.9zm-29.345 3.534 12.905 12.905-12.9 12.906zm3.535 29.345 12.9-12.9 12.905 12.9zm29.345-3.535-12.9-12.9 12.9-12.9z" fill="#f9b087"/><path d="m215.521 136.1h-37.879a2.5 2.5 0 0 0 -2.5 2.5v37.879a2.5 2.5 0 0 0 2.5 2.5h37.879a2.5 2.5 0 0 0 2.5-2.5v-37.879a2.5 2.5 0 0 0 -2.5-2.5zm-35.379 8.536 12.9 12.9-12.9 12.9zm3.534-3.536h25.81l-12.9 12.905zm12.905 19.975 12.9 12.9h-25.804zm3.535-3.535 12.9-12.9v25.81z" fill="#f9b087"/><g fill="#846f75"><path d="m232.333 28.6h-208.666a2.5 2.5 0 0 0 -2.5 2.5v193.8a2.5 2.5 0 0 0 2.5 2.5h208.666a2.5 2.5 0 0 0 2.5-2.5v-193.8a2.5 2.5 0 0 0 -2.5-2.5zm-2.5 5v21.5h-203.666v-21.5zm-203.666 188.8v-162.3h203.666v162.3z"/><path d="m39 46.6h11a2.5 2.5 0 0 0 0-5h-11a2.5 2.5 0 0 0 0 5z"/><path d="m62.581 46.6h11a2.5 2.5 0 0 0 0-5h-11a2.5 2.5 0 0 0 0 5z"/><path d="m86.163 46.6h11a2.5 2.5 0 0 0 0-5h-11a2.5 2.5 0 0 0 0 5z"/><path d="m205.662 46.6h11a2.5 2.5 0 1 0 0-5h-11a2.5 2.5 0 0 0 0 5z"/><path d="m215.521 95.984h-37.879a2.5 2.5 0 0 0 0 5h37.879a2.5 2.5 0 0 0 0-5z"/><path d="m78.359 95.984h-37.88a2.5 2.5 0 0 0 0 5h37.88a2.5 2.5 0 0 0 0-5z"/><path d="m164.2 136.1h-72.4a2.5 2.5 0 0 0 -2.5 2.5v72.4a2.5 2.5 0 0 0 2.5 2.5h72.4a2.5 2.5 0 0 0 2.5-2.5v-72.4a2.5 2.5 0 0 0 -2.5-2.5zm-69.9 8.535 30.165 30.165-30.165 30.165zm3.535-3.535h60.327l-30.162 30.166zm30.165 37.236 30.163 30.164h-60.327zm3.535-3.535 30.165-30.163v60.327z"/></g></svg>